HIERARCHY
ROOT Hips
{
 OFFSET 0.000000 0.000000 0.000000
 CHANNELS 6 Xposition Yposition Zposition Yrotation Xrotation Zrotation
 JOINT Chest
 {
  OFFSET 0.000000 9.585900 0.002600
  CHANNELS 3 Yrotation Xrotation Zrotation
  JOINT Chest2
  {
   OFFSET 0.000000 9.601200 -0.005300
   CHANNELS 3 Yrotation Xrotation Zrotation
   JOINT Chest3
   {
    OFFSET 0.000000 9.561800 0.000000
    CHANNELS 3 Yrotation Xrotation Zrotation
    JOINT Chest4
    {
     OFFSET 0.000000 9.552100 0.000000
     CHANNELS 3 Yrotation Xrotation Zrotation
     JOINT Neck
     {
      OFFSET 0.000000 14.453000 0.000000
      CHANNELS 3 Yrotation Xrotation Zrotation
      JOINT Head
      {
       OFFSET 0.000000 8.936500 -0.011300
       CHANNELS 3 Yrotation Xrotation Zrotation
       End Site
       {
        OFFSET 0.000000 17.073600 -0.006000
       }
      }
     }
     JOINT RightCollar
     {
      OFFSET -2.921100 9.558500 0.000000
      CHANNELS 3 Yrotation Xrotation Zrotation
      JOINT RightShoulder
      {
       OFFSET -13.519700 0.000000 0.000000
       CHANNELS 3 Yrotation Xrotation Zrotation
       JOINT RightElbow
       {
        OFFSET 0.000000 -29.696600 0.000000
        CHANNELS 3 Yrotation Xrotation Zrotation
        JOINT RightWrist
        {
         OFFSET 0.000000 -24.004700 0.000000
         CHANNELS 3 Yrotation Xrotation Zrotation
         End Site
         {
          OFFSET 0.000000 -17.728500 0.000000
         }
        }
       }
      }
     }
     JOINT LeftCollar
     {
      OFFSET 2.921100 9.558500 0.000000
      CHANNELS 3 Yrotation Xrotation Zrotation
      JOINT LeftShoulder
      {
       OFFSET 13.519700 0.000000 0.000000
       CHANNELS 3 Yrotation Xrotation Zrotation
       JOINT LeftElbow
       {
        OFFSET 0.000000 -29.696600 0.000000
        CHANNELS 3 Yrotation Xrotation Zrotation
        JOINT LeftWrist
        {
         OFFSET 0.000000 -24.004700 0.000000
         CHANNELS 3 Yrotation Xrotation Zrotation
         End Site
         {
          OFFSET 0.000000 -17.728500 0.000000
         }
        }
       }
      }
     }
    }
   }
  }
 }
 JOINT RightHip
 {
  OFFSET -7.771700 -0.012900 -0.001300
  CHANNELS 3 Yrotation Xrotation Zrotation
  JOINT RightKnee
  {
   OFFSET 0.000000 -40.869800 0.001200
   CHANNELS 3 Yrotation Xrotation Zrotation
   JOINT RightAnkle
   {
    OFFSET 0.000000 -39.717900 0.002100
    CHANNELS 3 Yrotation Xrotation Zrotation
    JOINT RightToe
    {
     OFFSET 0.000000 -4.965400 11.033500
     CHANNELS 3 Yrotation Xrotation Zrotation
     End Site
     {
      OFFSET 0.000000 -1.423100 5.872300
     }
    }
   }
  }
 }
 JOINT LeftHip
 {
  OFFSET 7.771700 -0.012900 -0.001300
  CHANNELS 3 Yrotation Xrotation Zrotation
  JOINT LeftKnee
  {
   OFFSET 0.000000 -40.869800 0.001200
   CHANNELS 3 Yrotation Xrotation Zrotation
   JOINT LeftAnkle
   {
    OFFSET 0.000000 -39.717900 0.002100
    CHANNELS 3 Yrotation Xrotation Zrotation
    JOINT LeftToe
    {
     OFFSET 0.000000 -4.965400 11.033500
     CHANNELS 3 Yrotation Xrotation Zrotation
     End Site
     {
      OFFSET 0.000000 -1.423100 5.872300
     }
    }
   }
  }
 }
}
MOTION
Frames: 16
Frame Time: 0.008333
-221.097267 57.632957 -74.210767 161.570873 -6.408671 0.326091 2.615671 6.030321 1.074399 0.106981 0.241562 -0.007167 0.153720 0.419637 0.034828 2.316640 5.824332 0.354809 1.189509 17.936673 -1.809430 2.783710 -2.424799 -3.720822 1.465139 9.248104 1.328981 0.683591 -5.700670 -11.888286 -57.506292 -88.556006 82.175590 -1.751519 7.297489 -31.881637 -4.972229 10.526489 -2.495610 13.648033 -4.803926 3.560273 64.806004 -84.324537 -89.451133 -1.598494 6.587241 14.758925 -15.204894 -65.566362 6.326564 -34.550799 73.186909 -35.624826 -4.257572 -8.079125 -0.477234 -0.293613 0.804703 -0.115983 -0.254185 -68.162239 15.286731 43.104875 65.327119 36.139433 -18.124893 -10.403659 1.228039 -0.229047 -0.945933 -0.084746
-221.109458 57.632311 -74.205718 161.550808 -6.403279 0.337514 2.620273 6.023643 1.079496 0.109808 0.241836 -0.005708 0.150586 0.420233 0.034923 2.313603 5.828364 0.367803 1.186859 17.929701 -1.819035 2.748464 -2.460503 -3.664136 1.457566 9.268948 1.315875 0.641875 -5.675020 -11.856680 -57.289904 -88.520692 81.914327 -1.755812 7.292090 -31.887132 -4.968551 10.533585 -2.507145 13.648140 -4.787890 3.577053 64.469735 -84.330878 -89.137040 -1.570531 6.535005 14.777199 -15.154431 -65.575100 6.309471 -34.516452 73.165850 -35.626026 -4.237865 -8.059355 -0.441286 -0.321772 0.808327 -0.126654 -0.163545 -68.173543 15.219858 43.076363 65.329581 36.125587 -18.147513 -10.412492 1.220909 -0.206799 -0.934438 -0.070563
-221.118339 57.632120 -74.202509 161.549865 -6.411605 0.335421 2.607028 6.030115 1.097186 0.107695 0.241510 -0.006600 0.159330 0.422080 0.027935 2.304029 5.830758 0.387976 1.184137 17.922433 -1.826555 2.716218 -2.500898 -3.607770 1.450651 9.290488 1.302988 0.601550 -5.649266 -11.824709 -57.410502 -88.519576 82.022379 -1.761621 7.289583 -31.893817 -4.959473 10.533509 -2.530924 13.651452 -4.752389 3.624191 64.723521 -84.305925 -89.399218 -1.567922 6.522322 14.774351 -15.140546 -65.567677 6.315386 -34.541167 73.148427 -35.664263 -4.266671 -8.052574 -0.434918 -0.313298 0.809908 -0.120780 -0.143973 -68.169697 15.202662 43.053414 65.333835 36.107772 -18.144165 -10.424654 1.219633 -0.220179 -0.925726 -0.070074
-221.125606 57.632188 -74.200035 161.554652 -6.423623 0.329682 2.592084 6.039934 1.114718 0.105155 0.242945 -0.002005 0.165561 0.422529 0.019542 2.295780 5.833852 0.405887 1.157533 17.888808 -1.763024 2.711253 -2.516854 -3.626516 1.446538 9.306413 1.287785 0.560430 -5.621477 -11.790929 -57.686017 -88.534946 82.294537 -1.767162 7.289003 -31.901257 -4.959551 10.535291 -2.529798 13.663236 -4.746343 3.598551 64.509731 -84.308538 -89.184474 -1.578152 6.532188 14.770615 -15.138017 -65.553807 6.318426 -34.554117 73.138251 -35.680757 -4.283345 -8.057772 -0.441685 -0.297736 0.816230 -0.111533 -0.141951 -68.161823 15.196008 43.034073 65.337638 36.090750 -18.124255 -10.436046 1.223726 -0.219146 -0.932587 -0.078662
-221.134483 57.632245 -74.197023 161.548888 -6.425481 0.338703 2.593209 6.041305 1.110310 0.094117 0.240451 0.011416 0.153810 0.421070 0.037319 2.308759 5.842912 0.389289 1.145407 17.871045 -1.738700 2.686524 -2.553442 -3.592885 1.448611 9.310324 1.272099 0.513724 -5.588100 -11.750681 -57.965772 -88.559013 82.581131 -1.756637 7.283593 -31.893240 -4.977055 10.538641 -2.489254 13.698396 -4.716794 3.554678 64.532360 -84.306301 -89.209594 -1.592511 6.548177 14.766216 -15.105145 -65.552908 6.300539 -34.562547 73.118982 -35.708648 -4.274321 -8.055247 -0.427123 -0.308340 0.823518 -0.113994 -0.101408 -68.162304 15.159090 43.028450 65.337332 36.085136 -18.121059 -10.443599 1.227535 -0.189678 -0.935197 -0.078233
-221.139899 57.632422 -74.193973 161.535369 -6.429307 0.334921 2.594837 6.040761 1.130798 0.094076 0.241080 0.011656 0.157158 0.423984 0.033638 2.312897 5.845430 0.382396 1.138462 17.862473 -1.722760 2.673817 -2.572412 -3.576098 1.431886 9.326372 1.282980 0.510128 -5.586363 -11.749711 -57.727527 -88.549735 82.317019 -1.742393 7.275123 -31.874144 -4.984741 10.538037 -2.472816 13.711511 -4.689955 3.546634 64.671622 -84.305069 -89.348517 -1.596750 6.567401 14.777913 -15.090352 -65.548632 6.313377 -34.573863 73.102669 -35.729874 -4.281770 -8.045265 -0.427473 -0.300869 0.821090 -0.108917 -0.089052 -68.158194 15.161227 43.028675 65.335281 36.079830 -18.090919 -10.466562 1.228365 -0.205586 -0.921787 -0.077672
-221.146386 57.632704 -74.192257 161.526393 -6.434032 0.345627 2.591342 6.044273 1.136136 0.094036 0.241611 0.012025 0.165462 0.425321 0.021473 2.300555 5.852015 0.405471 1.135597 17.849115 -1.730015 2.624964 -2.635155 -3.496104 1.426193 9.335806 1.277266 0.471859 -5.569369 -11.731481 -57.592012 -88.564238 82.174068 -1.770956 7.291352 -31.891031 -4.986658 10.526696 -2.469652 13.725028 -4.665040 3.529453 64.745161 -84.303203 -89.421442 -1.595327 6.581376 14.794182 -15.044688 -65.549354 6.293865 -34.558048 73.095367 -35.740760 -4.294290 -8.033335 -0.410932 -0.305891 0.817814 -0.107386 -0.045296 -68.151350 15.126619 43.023253 65.333954 36.072110 -18.091841 -10.494835 1.215643 -0.205034 -0.896853 -0.061579
-221.150970 57.633157 -74.192164 161.522952 -6.446682 0.354595 2.583149 6.053267 1.142780 0.082231 0.238035 0.030325 0.176566 0.430524 0.004141 2.285321 5.860666 0.444983 1.122536 17.829017 -1.747042 2.581865 -2.690928 -3.438772 1.409305 9.353999 1.257947 0.450890 -5.568008 -11.738786 -57.482703 -88.578946 82.073697 -1.779239 7.298716 -31.900597 -4.984872 10.509386 -2.489452 13.740165 -4.640754 3.503535 64.528825 -84.311623 -89.188202 -1.583017 6.571551 14.799620 -15.010405 -65.541054 6.267640 -34.550163 73.094406 -35.743041 -4.306643 -8.031030 -0.402721 -0.306704 0.815458 -0.112033 -0.016896 -68.138049 15.100945 43.026332 65.334274 36.070804 -18.089870 -10.509572 1.216133 -0.230191 -0.899819 -0.067194
-221.154832 57.633599 -74.192873 161.512454 -6.460192 0.368410 2.574605 6.060638 1.154680 0.088177 0.240314 0.021953 0.170930 0.430095 0.014686 2.291897 5.867268 0.438248 1.108109 17.810385 -1.719530 2.544404 -2.733240 -3.406899 1.400410 9.360679 1.252558 0.422980 -5.563395 -11.731932 -57.323592 -88.584121 81.923670 -1.769445 7.295672 -31.889329 -4.985208 10.503049 -2.496590 13.741207 -4.633683 3.500485 64.532686 -84.303397 -89.184973 -1.585198 6.587718 14.823466 -14.959219 -65.533093 6.230021 -34.556524 73.092815 -35.753617 -4.317677 -8.035383 -0.406174 -0.320008 0.817273 -0.110057 0.040962 -68.123816 15.053505 43.025780 65.336571 36.065111 -18.078223 -10.522947 1.228326 -0.241209 -0.919468 -0.081985
-221.156595 57.633880 -74.192538 161.502113 -6.466954 0.374862 2.578853 6.065044 1.157039 0.082692 0.236738 0.032150 0.176340 0.434265 0.005014 2.283416 5.867197 0.460198 1.073248 17.766991 -1.657227 2.529553 -2.748253 -3.424501 1.395422 9.367307 1.239052 0.418251 -5.562066 -11.740481 -57.267299 -88.589016 81.875651 -1.776312 7.297816 -31.897840 -4.981722 10.497342 -2.514200 13.744329 -4.627592 3.498683 64.428177 -84.306224 -89.060513 -1.580946 6.588322 14.834391 -14.920858 -65.529937 6.210869 -34.571049 73.089172 -35.771261 -4.322979 -8.034471 -0.410380 -0.307396 0.815005 -0.105435 0.078634 -68.114999 15.033084 43.006996 65.339751 36.048854 -18.101653 -10.541195 1.224719 -0.236948 -0.923040 -0.083837
-221.156559 57.634224 -74.193801 161.497526 -6.482124 0.379775 2.562765 6.064918 1.187260 0.093429 0.243670 0.014377 0.172823 0.438428 0.006513 2.275329 5.867087 0.478540 1.056193 17.747470 -1.650004 2.492464 -2.787359 -3.389467 1.397577 9.374659 1.213628 0.412507 -5.558738 -11.745748 -57.077309 -88.584232 81.671659 -1.783324 7.297453 -31.902988 -4.974007 10.487179 -2.526106 13.733432 -4.628345 3.493968 64.247705 -84.292295 -88.851661 -1.576136 6.585255 14.843822 -14.876978 -65.518862 6.188131 -34.599424 73.087795 -35.808708 -4.335639 -8.035304 -0.400993 -0.300191 0.811353 -0.105892 0.098549 -68.095849 15.024752 42.986249 65.344104 36.024539 -18.104220 -10.558084 1.220294 -0.243489 -0.921855 -0.084074
-221.156718 57.634551 -74.196399 161.500107 -6.501312 0.393438 2.552128 6.073247 1.191018 0.095959 0.250000 0.005705 0.162350 0.426057 0.030403 2.270520 5.878469 0.474672 1.037141 17.727681 -1.633833 2.452713 -2.825414 -3.354059 1.404874 9.382865 1.188410 0.356278 -5.553900 -11.713447 -56.848910 -88.600920 81.468259 -1.795071 7.299003 -31.905508 -4.967707 10.480734 -2.530567 13.731934 -4.625190 3.479999 64.163870 -84.292918 -88.745528 -1.566344 6.586803 14.835809 -14.814217 -65.507770 6.135640 -34.625028 73.091488 -35.844757 -4.345619 -8.035617 -0.385628 -0.305400 0.805257 -0.109845 0.132490 -68.072370 14.994975 42.981712 65.343233 36.015423 -18.128320 -10.566836 1.212860 -0.229729 -0.925714 -0.080406
-221.155757 57.634749 -74.199302 161.497270 -6.522120 0.407431 2.547276 6.081093 1.195934 0.098590 0.258049 -0.004128 0.163671 0.428943 0.026370 2.258286 5.872421 0.499120 1.016306 17.708424 -1.618715 2.409962 -2.862471 -3.319856 1.402655 9.388411 1.182423 0.349291 -5.551443 -11.727309 -56.952253 -88.599103 81.569568 -1.788884 7.303614 -31.893212 -4.965177 10.473746 -2.532594 13.732886 -4.623449 3.466129 64.058553 -84.293782 -88.625418 -1.563677 6.588582 14.848375 -14.749053 -65.494953 6.080839 -34.649681 73.095660 -35.870600 -4.355541 -8.035889 -0.379625 -0.316088 0.798430 -0.113771 0.162041 -68.046132 14.972194 42.998344 65.340687 36.021574 -18.135209 -10.578043 1.201193 -0.230996 -0.923601 -0.069728
-221.152001 57.634739 -74.201645 161.492982 -6.543942 0.409705 2.542884 6.086602 1.212871 0.101055 0.261552 -0.003382 0.163023 0.429513 0.026983 2.248942 5.874471 0.507838 0.994894 17.689998 -1.604015 2.366234 -2.897993 -3.286201 1.397503 9.389352 1.203669 0.360661 -5.541034 -11.776780 -57.788687 -88.594080 82.370187 -1.786774 7.314677 -31.877369 -4.969202 10.457742 -2.519380 13.743053 -4.610849 3.441477 64.042288 -84.290036 -88.593455 -1.590205 6.575182 14.857959 -14.693822 -65.478404 6.050644 -34.702062 73.094290 -35.922947 -4.371920 -8.030658 -0.373689 -0.284981 0.785573 -0.117666 0.168143 -68.020513 14.978922 43.000460 65.342349 36.016773 -18.128856 -10.586017 1.194822 -0.225210 -0.923045 -0.064427
-221.149081 57.634426 -74.203850 161.482350 -6.563231 0.421737 2.541460 6.086792 1.219601 0.103987 0.265207 -0.001788 0.150161 0.410214 0.046175 2.257713 5.905068 0.483976 0.968033 17.664582 -1.575426 2.324052 -2.930076 -3.253694 1.398788 9.391785 1.202644 0.344766 -5.543624 -11.773351 -58.175494 -88.606715 82.758053 -1.790050 7.317854 -31.883776 -4.976720 10.437665 -2.498123 13.753888 -4.602252 3.425438 64.036105 -84.290154 -88.576370 -1.583654 6.574758 14.855426 -14.626152 -65.465767 6.001768 -34.727540 73.096554 -35.949069 -4.361132 -8.029711 -0.374611 -0.296892 0.781592 -0.115004 0.206688 -68.000917 14.952326 43.018001 65.343292 36.031649 -18.122263 -10.586769 1.197958 -0.230527 -0.934317 -0.074123
-221.144188 57.633921 -74.206073 161.466075 -6.587068 0.427321 2.546014 6.088338 1.233834 0.091528 0.244995 0.016367 0.161167 0.431113 0.029043 2.258106 5.920605 0.478260 0.940096 17.638641 -1.546793 2.281412 -2.958501 -3.223794 1.402562 9.393255 1.203203 0.320952 -5.569120 -11.750207 -57.255295 -88.622781 81.854794 -1.801040 7.313609 -31.893317 -4.982821 10.417099 -2.473873 13.765005 -4.596013 3.407822 64.058655 -84.287627 -88.587115 -1.566530 6.590422 14.849988 -14.574791 -65.445388 5.972107 -34.749758 73.096438 -35.968169 -4.360929 -8.028817 -0.371465 -0.300810 0.778805 -0.118806 0.245111 -67.978020 14.938883 43.023737 65.349468 36.036113 -18.102611 -10.588707 1.198300 -0.218777 -0.943504 -0.075188
